<svg width="32" height="32" viewBox="0 0 32 32" fill="none" xmlns="http://www.w3.org/2000/svg">
<path d="M0 16C0 7.16344 7.16344 0 16 0C24.8366 0 32 7.16344 32 16C32 24.8366 24.8366 32 16 32C7.16344 32 0 24.8366 0 16Z" fill="#F1F9F4"/>
<path fill-rule="evenodd" clip-rule="evenodd" d="M16 25C17.1819 25 18.3522 24.7672 19.4442 24.3149C20.5361 23.8626 21.5282 23.1997 22.364 22.364C23.1997 21.5282 23.8626 20.5361 24.3149 19.4442C24.7672 18.3522 25 17.1819 25 16C25 14.8181 24.7672 13.6478 24.3149 12.5558C23.8626 11.4639 23.1997 10.4718 22.364 9.63604C21.5282 8.80031 20.5361 8.13738 19.4442 7.68508C18.3522 7.23279 17.1819 7 16 7C13.6131 7 11.3239 7.94821 9.63604 9.63604C7.94821 11.3239 7 13.6131 7 16C7 18.3869 7.94821 20.6761 9.63604 22.364C11.3239 24.0518 13.6131 25 16 25ZM15.768 19.64L20.768 13.64L19.232 12.36L14.932 17.519L12.707 15.293L11.293 16.707L14.293 19.707L15.067 20.481L15.768 19.64Z" fill="#8BD999"/>
</svg>
