<svg width="16" height="16" viewBox="0 0 16 16" fill="none" xmlns="http://www.w3.org/2000/svg">
    <g clip-path="url(#clip0_2085_88)">
        <path d="M15.514 6.27923C14.9122 5.29372 14.153 4.4134 13.2667 3.67323L15.1334 1.80657C15.2548 1.68083 15.322 1.51243 15.3205 1.33763C15.319 1.16283 15.2489 0.995625 15.1252 0.87202C15.0016 0.748415 14.8344 0.678302 14.6596 0.676783C14.4848 0.675264 14.3164 0.74246 14.1907 0.863899L12.1607 2.89657C10.9023 2.14911 9.46365 1.75954 8.00003 1.7699C3.8727 1.7699 1.5207 4.59523 0.486034 6.27923C0.166386 6.79624 -0.00292969 7.39206 -0.00292969 7.9999C-0.00292969 8.60774 0.166386 9.20356 0.486034 9.72057C1.08787 10.7061 1.84703 11.5864 2.73337 12.3266L0.866701 14.1932C0.803027 14.2547 0.752239 14.3283 0.7173 14.4096C0.682361 14.491 0.66397 14.5784 0.663201 14.667C0.662431 14.7555 0.679299 14.8433 0.71282 14.9252C0.74634 15.0071 0.795842 15.0816 0.858438 15.1442C0.921033 15.2068 0.995467 15.2563 1.0774 15.2898C1.15933 15.3233 1.24712 15.3402 1.33564 15.3394C1.42415 15.3386 1.51163 15.3202 1.59297 15.2853C1.67431 15.2504 1.74787 15.1996 1.80937 15.1359L3.84403 13.1012C5.10088 13.8486 6.53782 14.2388 8.00003 14.2299C12.1274 14.2299 14.4794 11.4046 15.514 9.72057C15.8337 9.20356 16.003 8.60774 16.003 7.9999C16.003 7.39206 15.8337 6.79624 15.514 6.27923ZM1.62203 9.02257C1.43212 8.71526 1.33153 8.36115 1.33153 7.9999C1.33153 7.63865 1.43212 7.28454 1.62203 6.97723C2.51137 5.53323 4.52137 3.10323 8.00003 3.10323C9.10688 3.09703 10.1982 3.36379 11.1774 3.8799L9.83537 5.2219C9.19532 4.79697 8.42797 4.60656 7.66352 4.683C6.89907 4.75943 6.18461 5.09799 5.64137 5.64123C5.09813 6.18448 4.75956 6.89894 4.68313 7.66339C4.6067 8.42784 4.7971 9.19519 5.22203 9.83523L3.68203 11.3752C2.86544 10.715 2.16859 9.9192 1.62203 9.02257ZM10 7.9999C10 8.53033 9.78932 9.03904 9.41425 9.41411C9.03918 9.78919 8.53047 9.9999 8.00003 9.9999C7.70304 9.99875 7.41017 9.93037 7.14337 9.7999L9.80003 7.14323C9.93051 7.41003 9.99889 7.70291 10 7.9999ZM6.00003 7.9999C6.00003 7.46947 6.21075 6.96076 6.58582 6.58569C6.96089 6.21061 7.4696 5.9999 8.00003 5.9999C8.29703 6.00105 8.5899 6.06943 8.8567 6.1999L6.20003 8.85657C6.06956 8.58977 6.00118 8.29689 6.00003 7.9999ZM14.378 9.02257C13.4887 10.4666 11.4787 12.8966 8.00003 12.8966C6.89319 12.9028 5.80188 12.636 4.8227 12.1199L6.1647 10.7779C6.80475 11.2028 7.5721 11.3932 8.33655 11.3168C9.101 11.2404 9.81546 10.9018 10.3587 10.3586C10.9019 9.81532 11.2405 9.10086 11.3169 8.33641C11.3934 7.57196 11.203 6.80461 10.778 6.16457L12.318 4.62457C13.1346 5.28475 13.8315 6.0806 14.378 6.97723C14.5679 7.28454 14.6685 7.63865 14.6685 7.9999C14.6685 8.36115 14.5679 8.71526 14.378 9.02257Z" fill="#757575"/>
    </g>
    <defs>
        <clipPath id="clip0_2085_88">
            <rect width="16" height="16" fill="white" />
        </clipPath>
    </defs>
</svg>
