<svg width="16" height="16" viewBox="0 0 16 16" fill="none" xmlns="http://www.w3.org/2000/svg">
    <g clip-path="url(#clip0_2215_1930)">
        <path d="M15.514 6.27935C14.48 4.59535 12.128 1.77002 8 1.77002C3.872 1.77002 1.52 4.59535 0.486 6.27935C0.166352 6.79636 -0.00296402 7.39218 -0.00296402 8.00002C-0.00296402 8.60786 0.166352 9.20368 0.486 9.72069C1.52 11.4047 3.872 14.23 8 14.23C12.128 14.23 14.48 11.4047 15.514 9.72069C15.8336 9.20368 16.003 8.60786 16.003 8.00002C16.003 7.39218 15.8336 6.79636 15.514 6.27935ZM14.3773 9.02269C13.4893 10.4667 11.4793 12.8967 8 12.8967C4.52067 12.8967 2.51067 10.4667 1.62267 9.02269C1.43276 8.71538 1.33217 8.36127 1.33217 8.00002C1.33217 7.63877 1.43276 7.28466 1.62267 6.97735C2.51067 5.53335 4.52067 3.10335 8 3.10335C11.4793 3.10335 13.4893 5.53069 14.3773 6.97735C14.5672 7.28466 14.6678 7.63877 14.6678 8.00002C14.6678 8.36127 14.5672 8.71538 14.3773 9.02269Z" fill="#757575"/>
        <path d="M8 4.6665C7.34073 4.6665 6.69626 4.862 6.1481 5.22827C5.59993 5.59454 5.17269 6.11514 4.9204 6.72423C4.66811 7.33331 4.6021 8.00354 4.73071 8.65014C4.85933 9.29674 5.1768 9.89069 5.64298 10.3569C6.10915 10.823 6.70309 11.1405 7.3497 11.2691C7.9963 11.3977 8.66652 11.3317 9.27561 11.0794C9.8847 10.8271 10.4053 10.3999 10.7716 9.85174C11.1378 9.30357 11.3333 8.65911 11.3333 7.99984C11.3323 7.11611 10.9807 6.26888 10.3559 5.64398C9.73096 5.01909 8.88373 4.66756 8 4.6665ZM8 9.99984C7.60444 9.99984 7.21776 9.88254 6.88886 9.66278C6.55996 9.44301 6.30361 9.13066 6.15224 8.7652C6.00086 8.39975 5.96126 7.99762 6.03843 7.60966C6.1156 7.22169 6.30608 6.86533 6.58579 6.58562C6.86549 6.30592 7.22186 6.11544 7.60982 6.03827C7.99778 5.9611 8.39991 6.0007 8.76537 6.15208C9.13082 6.30345 9.44318 6.5598 9.66294 6.8887C9.8827 7.2176 10 7.60427 10 7.99984C10 8.53027 9.78929 9.03898 9.41421 9.41405C9.03914 9.78912 8.53043 9.99984 8 9.99984Z" fill="#757575"/>
    </g>
    <defs>
        <clipPath id="clip0_2215_1930">
            <rect width="16" height="16" fill="white"/>
        </clipPath>
    </defs>
</svg>
